<svg xmlns="http://www.w3.org/2000/svg" viewBox="0 0 1200 630" role="img" aria-label="OBIXCORE Dark Neon FPV Platform">
  <defs>
    <linearGradient id="bg" x1="0" x2="1" y1="0" y2="1">
      <stop offset="0%" stop-color="#05070b"/>
      <stop offset="100%" stop-color="#0a0c10"/>
    </linearGradient>
    <radialGradient id="glow1" cx="30%" cy="30%" r="50%">
      <stop offset="0%" stop-color="#00e87a" stop-opacity="0.35"/>
      <stop offset="100%" stop-color="#00e87a" stop-opacity="0"/>
    </radialGradient>
    <radialGradient id="glow2" cx="75%" cy="40%" r="45%">
      <stop offset="0%" stop-color="#00aaff" stop-opacity="0.25"/>
      <stop offset="100%" stop-color="#00aaff" stop-opacity="0"/>
    </radialGradient>
    <filter id="blur" x="-20%" y="-20%" width="140%" height="140%">
      <feGaussianBlur stdDeviation="26"/>
    </filter>
  </defs>
  <rect width="1200" height="630" fill="url(#bg)"/>
  <circle cx="340" cy="180" r="210" fill="#00e87a" opacity="0.22" filter="url(#blur)"/>
  <circle cx="860" cy="240" r="220" fill="#00aaff" opacity="0.18" filter="url(#blur)"/>
  <circle cx="980" cy="470" r="240" fill="#b060ff" opacity="0.12" filter="url(#blur)"/>
  <rect x="72" y="72" width="1056" height="486" rx="36" fill="none" stroke="#1d2530" stroke-width="2"/>
  <g opacity="0.14" stroke="#7ef7b8" stroke-width="1">
    <path d="M72 168h1056M72 252h1056M72 336h1056M72 420h1056M72 504h1056"/>
    <path d="M168 72v486M264 72v486M360 72v486M456 72v486M552 72v486M648 72v486M744 72v486M840 72v486M936 72v486M1032 72v486"/>
  </g>
  <g transform="translate(110 150)">
    <circle cx="58" cy="58" r="58" fill="none" stroke="#00e87a" stroke-width="4"/>
    <circle cx="58" cy="58" r="34" fill="none" stroke="#00aaff" stroke-width="2" opacity="0.8"/>
    <path d="M58 16v84M16 58h84" stroke="#00e87a" stroke-width="4" stroke-linecap="round"/>
  </g>
  <text x="240" y="230" fill="#eaf2ff" font-family="Arial, Helvetica, sans-serif" font-size="88" font-weight="800" letter-spacing="12">OBIXCORE</text>
  <text x="242" y="292" fill="#00e87a" font-family="Arial, Helvetica, sans-serif" font-size="28" font-weight="700" letter-spacing="10">DARK NEON FPV PLATFORM</text>
  <text x="242" y="365" fill="#b9c6d8" font-family="Arial, Helvetica, sans-serif" font-size="28">FPV tuning • problem solver • calculator • preset library</text>
  <rect x="242" y="414" width="252" height="52" rx="18" fill="#00e87a" opacity="0.16" stroke="#00e87a" stroke-opacity="0.35"/>
  <text x="270" y="449" fill="#7ef7b8" font-family="Arial, Helvetica, sans-serif" font-size="22" font-weight="700">Scan. Tune. Fly.</text>
</svg>
